<?xml version="1.0" standalone="no"?>
<!DOCTYPE svg PUBLIC "-//W3C//DTD SVG 20010904//EN"
 "http://www.w3.org/TR/2001/REC-SVG-20010904/DTD/svg10.dtd">
<svg version="1.0" xmlns="http://www.w3.org/2000/svg"
 width="450.000000pt" height="571.000000pt" viewBox="0 0 450.000000 571.000000"
 preserveAspectRatio="xMidYMid meet">
<metadata>
Created by potrace 1.10, written by Peter Selinger 2001-2011
</metadata>
<g transform="translate(0.000000,571.000000) scale(0.050000,-0.050000)"
fill="#ff8000" stroke="none">
<path d="M3910 10582 c-345 -48 -591 -100 -624 -133 -15 -15 -40 -22 -56 -16
-15 6 -40 3 -54 -6 -14 -9 -44 -19 -66 -22 -21 -3 -48 -15 -59 -26 -10 -10
-44 -19 -75 -19 -31 0 -56 -9 -56 -20 0 -11 -22 -20 -49 -20 -26 0 -61 -13
-77 -29 -16 -16 -33 -25 -39 -20 -18 18 -294 -117 -281 -137 8 -13 -1 -16 -21
-8 -22 8 -39 2 -46 -17 -6 -16 -22 -28 -34 -27 -50 6 -75 -3 -62 -23 7 -12 1
-19 -15 -15 -37 8 -347 -173 -412 -241 -28 -29 -43 -40 -33 -23 9 16 -23 0
-72 -37 -49 -37 -124 -90 -166 -119 -67 -45 -72 -54 -40 -67 34 -13 34 -14 2
-16 -19 0 -37 1 -40 4 -6 5 -104 -79 -249 -213 -58 -53 -100 -106 -93 -118 7
-11 4 -15 -7 -8 -26 16 -91 -54 -71 -76 8 -9 5 -11 -7 -4 -12 7 -73 -45 -135
-115 -92 -104 -106 -130 -78 -137 33 -9 33 -9 0 -12 -22 -1 -36 -19 -36 -47
-2 -41 -3 -42 -17 -7 -15 39 -120 -93 -106 -134 3 -10 -3 -12 -12 -7 -19 12
-185 -231 -192 -280 -3 -17 -19 -39 -36 -49 -17 -9 -42 -47 -57 -83 -14 -36
-39 -81 -55 -100 -17 -19 -22 -35 -12 -35 10 0 8 -7 -4 -15 -32 -23 -202 -391
-259 -563 -28 -84 -64 -175 -79 -204 -47 -86 -44 -2747 3 -2841 61 -121 67
-136 67 -165 0 -26 78 -218 184 -456 25 -55 52 -89 64 -82 12 7 16 5 8 -4 -17
-17 122 -290 148 -290 9 0 16 -13 16 -30 0 -16 9 -30 20 -30 11 0 18 -7 15
-15 -8 -24 82 -165 106 -165 12 0 16 -8 10 -19 -6 -10 5 -30 26 -45 21 -14 37
-31 35 -37 -7 -37 105 -162 153 -173 46 -9 51 -15 26 -34 -31 -23 62 -152 110
-152 12 0 17 -8 11 -17 -21 -33 459 -482 506 -473 28 5 42 -2 42 -22 0 -18
-11 -25 -25 -18 -14 7 6 -15 45 -49 38 -34 81 -57 94 -52 14 5 23 0 21 -12 -7
-29 328 -259 360 -247 14 5 25 -2 25 -16 0 -46 526 -314 586 -298 25 6 35 2
27 -11 -17 -27 134 -88 181 -73 26 9 29 7 10 -7 -55 -40 674 -230 876 -228 90
0 118 -5 90 -17 -52 -22 34 -26 483 -20 231 3 347 -3 356 -18 7 -12 24 -22 37
-22 15 0 12 9 -6 21 -22 15 6 20 100 16 206 -8 338 3 290 23 -28 12 1 17 90
16 219 0 894 183 952 259 16 20 27 25 27 10 1 -18 12 -19 50 -2 28 13 44 32
37 43 -8 13 1 16 22 8 68 -26 940 464 952 536 2 11 11 18 20 16 9 -3 38 16 66
42 27 25 66 52 86 60 31 12 32 17 7 33 -23 14 -20 18 16 19 25 0 45 9 45 20 0
11 12 20 27 20 36 0 117 89 98 110 -8 9 -5 11 6 4 12 -6 98 64 190 157 92 93
155 170 139 170 -17 1 -11 9 14 19 41 17 236 246 247 290 2 11 21 31 41 46 22
15 31 38 24 58 -8 20 -5 28 8 20 20 -13 209 255 239 338 7 21 30 62 50 91 20
29 37 68 37 85 0 18 7 32 16 32 18 0 197 382 189 405 -3 8 4 15 15 15 11 0 20
28 20 61 0 34 8 57 17 51 18 -11 73 141 66 183 -3 14 9 25 26 25 28 0 31 154
31 1432 0 1235 -4 1431 -29 1421 -18 -7 -28 2 -27 23 2 44 -84 270 -109 286
-10 7 -17 19 -15 26 7 23 -166 392 -184 392 -9 0 -16 18 -16 40 0 22 -9 40
-20 40 -11 0 -20 16 -20 36 0 20 -16 54 -35 76 -19 22 -37 49 -39 61 -5 24
-161 267 -192 297 -13 13 -14 10 -3 -10 14 -26 12 -26 -17 -3 -19 16 -34 45
-34 65 0 21 -9 38 -20 38 -11 0 -18 7 -15 15 4 16 -282 385 -300 385 -5 0 1
-14 15 -30 14 -17 21 -36 15 -41 -5 -6 -25 21 -43 59 -37 78 -355 386 -434
420 -29 12 -52 31 -52 41 -1 11 -18 29 -38 40 -21 12 -45 31 -53 44 -8 12 -37
28 -66 35 -28 7 -46 21 -40 30 6 10 -12 32 -39 50 -28 18 -50 28 -50 22 0 -5
-18 8 -41 31 -22 22 -51 34 -65 27 -13 -8 -17 -7 -9 2 15 17 -142 123 -170
115 -8 -3 -15 3 -15 13 0 19 -121 74 -146 66 -10 -3 -12 3 -6 13 12 19 -72 63
-119 63 -16 0 -29 8 -29 17 0 25 -433 206 -523 218 -42 6 -77 17 -77 25 0 20
-180 70 -225 63 -19 -3 -35 3 -35 13 0 19 -292 84 -560 125 -266 41 -917 41
-1210 1z m1300 -220 c3440 -575 4963 -4645 2739 -7322 -2381 -2868 -7099
-1693 -7846 1954 -545 2661 1323 5166 4037 5414 215 19 837 -7 1070 -46z"/>
<path d="M3976 9490 c-2362 -384 -3707 -2799 -2783 -4995 470 -1117 1496
-1915 2747 -2138 151 -27 1044 -40 1069 -15 6 7 -227 731 -518 1610 -291 879
-597 1810 -681 2068 -192 593 -180 563 -199 500 -56 -185 -804 -2124 -842
-2184 -230 -356 -809 -174 -809 254 0 141 1218 3383 1318 3509 166 209 517
218 693 18 46 -53 100 -183 217 -528 86 -253 417 -1224 736 -2159 319 -935
666 -1954 770 -2265 105 -311 199 -565 210 -565 38 0 417 204 580 314 2109
1411 2158 4477 95 5951 -712 509 -1763 762 -2603 625z m918 -203 c124 -7 220
-21 214 -30 -10 -17 79 -27 169 -19 25 2 59 -6 74 -19 16 -13 131 -58 257
-100 125 -42 284 -105 352 -139 68 -34 118 -53 111 -41 -26 41 25 20 57 -24
19 -25 28 -34 22 -20 -8 16 -1 20 20 12 17 -6 27 -16 22 -22 -9 -9 216 -165
239 -165 5 0 10 16 11 35 3 33 3 33 12 0 5 -20 17 -31 26 -25 10 6 23 1 30
-10 7 -12 6 -20 -4 -18 -58 10 -37 -14 95 -110 82 -59 158 -103 169 -97 11 6
13 4 4 -6 -18 -20 246 -292 270 -277 9 6 15 4 12 -6 -5 -16 5 -30 149 -200 41
-49 75 -95 75 -102 0 -8 25 -41 55 -74 30 -32 53 -66 50 -75 -3 -8 4 -15 15
-15 11 0 18 -7 16 -15 -3 -8 28 -73 68 -145 88 -156 218 -430 224 -470 2 -16
10 -35 18 -43 8 -7 14 -35 14 -62 0 -26 14 -62 31 -79 17 -17 25 -46 18 -68
-6 -21 -3 -38 7 -38 11 0 19 -20 19 -45 0 -25 15 -114 33 -199 49 -233 45
-1079 -6 -1326 -20 -99 -32 -191 -27 -205 5 -14 -2 -25 -15 -25 -13 0 -19 -12
-14 -28 6 -15 -2 -47 -19 -70 -16 -24 -32 -63 -35 -88 -2 -25 -11 -57 -19 -70
-9 -13 -10 -32 -4 -42 6 -11 0 -31 -15 -45 -33 -34 -99 -197 -79 -197 8 0 5
-7 -8 -15 -36 -23 -166 -279 -151 -296 8 -9 3 -9 -11 -1 -22 13 -29 1 -23 -41
1 -7 -13 -22 -31 -31 -17 -10 -27 -26 -22 -35 6 -9 -3 -22 -19 -28 -17 -7 -30
-21 -30 -33 0 -18 -90 -137 -221 -293 -19 -24 -30 -50 -22 -57 7 -7 3 -10 -10
-7 -33 10 -293 -257 -262 -270 15 -6 11 -10 -11 -11 -45 -2 -298 -194 -322
-244 -10 -21 -28 -37 -40 -36 -49 6 -74 -3 -62 -22 7 -11 -6 -20 -29 -20 -22
0 -41 -11 -41 -23 0 -13 -6 -18 -12 -11 -7 7 -45 -10 -85 -37 -40 -27 -84 -49
-98 -49 -14 0 -25 -9 -25 -21 0 -14 -13 -14 -40 1 -30 16 -40 15 -41 -4 -1
-31 -58 120 -150 394 -37 110 -122 358 -190 550 -68 193 -141 409 -163 480
-22 72 -48 139 -58 149 -10 10 -18 35 -18 55 0 20 -8 52 -17 71 -29 57 -287
830 -298 890 -7 41 6 72 53 126 79 90 168 264 150 293 -9 13 -5 17 9 8 15 -9
23 2 23 30 l0 44 42 -48 c53 -61 100 -150 86 -164 -6 -6 4 -34 23 -62 18 -29
28 -52 22 -52 -6 0 15 -61 46 -135 32 -74 77 -193 100 -265 38 -115 89 -240
143 -345 10 -19 18 -52 18 -74 0 -21 9 -44 20 -51 11 -7 20 -26 20 -42 0 -17
18 -67 40 -113 22 -45 40 -92 40 -104 0 -32 111 -255 153 -308 20 -26 58 -73
84 -105 26 -32 56 -52 68 -45 12 7 15 4 8 -8 -25 -41 168 -114 323 -122 338
-18 640 288 643 651 1 113 -90 428 -178 616 -10 22 -29 76 -42 120 -13 44 -36
103 -51 130 -14 28 -59 145 -100 260 -40 116 -81 213 -90 217 -10 3 -18 23
-18 44 0 20 -10 62 -22 93 -13 31 -30 74 -38 96 -8 22 -25 63 -38 91 -13 28
-62 156 -109 285 -47 129 -92 229 -99 221 -8 -7 -14 6 -14 30 0 24 0 47 0 53
0 5 -22 59 -48 118 -27 60 -43 114 -37 120 6 6 2 23 -10 37 -11 14 -67 151
-125 305 -57 154 -121 318 -142 365 -21 46 -38 91 -38 99 0 40 -89 223 -103
214 -9 -6 -17 6 -18 26 -1 68 -259 301 -303 274 -11 -7 -27 -2 -35 11 -10 16
-73 24 -178 24 -174 0 -312 -32 -290 -68 7 -12 4 -15 -8 -8 -22 14 -122 -59
-200 -147 -83 -93 -298 -583 -273 -623 6 -9 1 -17 -11 -17 -11 0 -21 -16 -22
-35 0 -19 -13 -52 -29 -73 -16 -21 -24 -46 -18 -55 6 -9 -7 -17 -29 -17 -39 0
-62 34 -77 110 -4 22 -16 43 -27 47 -10 3 -19 24 -19 45 0 21 -10 38 -21 38
-12 0 -17 7 -12 16 12 18 -95 329 -108 316 -5 -5 -10 14 -12 41 -10 161 -269
393 -476 427 -178 29 -431 -11 -400 -62 6 -10 -5 -18 -25 -18 -112 -1 -324
-310 -377 -549 -4 -21 -17 -47 -29 -59 -11 -11 -20 -56 -20 -101 -1 -54 -6
-72 -18 -54 -12 20 -30 -6 -61 -90 -24 -64 -80 -216 -124 -337 -45 -121 -89
-236 -100 -256 -10 -20 -13 -44 -7 -53 5 -10 -4 -32 -21 -49 -17 -18 -26 -41
-19 -52 7 -11 4 -20 -6 -20 -19 0 -154 -346 -154 -394 0 -14 -12 -36 -25 -49
-14 -14 -25 -41 -25 -61 0 -20 -9 -52 -19 -71 -25 -46 -202 -499 -260 -665
-24 -71 -57 -154 -73 -183 -15 -29 -32 -85 -37 -125 -5 -40 -23 -87 -40 -104
-17 -17 -31 -49 -31 -71 0 -22 -13 -53 -28 -68 -65 -64 -96 -528 -39 -566 12
-7 26 -36 33 -64 31 -127 221 -305 381 -358 158 -52 566 30 520 104 -7 12 -4
16 7 9 11 -7 37 5 56 26 28 31 30 40 8 41 -21 0 -19 7 7 27 19 14 35 39 35 54
1 23 4 23 18 1 12 -20 28 -6 61 50 75 131 81 145 81 198 0 34 8 47 23 37 16
-10 20 -4 11 19 -7 18 -5 33 5 33 16 0 48 103 41 132 -2 8 7 20 19 28 13 7 24
33 26 57 2 24 12 43 23 43 10 0 14 5 7 11 -6 7 1 35 15 63 15 28 22 64 16 79
-6 16 2 40 19 53 31 25 141 295 126 310 -5 5 4 22 20 38 16 16 24 39 17 50 -7
11 -4 26 6 33 17 11 138 309 152 373 7 34 76 76 94 57 10 -9 64 -156 120 -327
57 -170 112 -319 122 -329 10 -10 18 -35 18 -55 0 -53 47 -196 65 -196 8 0 15
-19 15 -43 0 -57 161 -545 183 -554 9 -3 17 -33 17 -65 0 -32 8 -58 18 -58 10
0 22 -29 27 -65 5 -36 37 -150 71 -255 72 -222 240 -716 258 -760 6 -16 15
-45 19 -64 3 -18 38 -128 77 -244 93 -279 93 -326 -3 -344 -181 -34 -861 42
-1086 122 -47 16 -107 30 -132 30 -25 0 -49 10 -53 22 -4 12 -32 23 -62 25
-30 2 -54 10 -54 18 0 8 -28 15 -63 15 -35 0 -58 6 -51 13 7 6 -53 43 -132 81
-131 63 -470 260 -494 287 -5 6 -46 38 -90 70 -44 32 -102 79 -129 103 -26 24
-56 39 -65 34 -9 -6 -16 -3 -16 6 0 9 -81 100 -180 202 -99 102 -180 195 -180
206 0 11 -9 15 -20 8 -12 -7 -19 -6 -16 4 6 21 -123 197 -140 191 -8 -3 -15 4
-16 15 -2 11 -4 28 -5 37 -2 10 -28 43 -58 74 -30 31 -41 49 -25 41 17 -8 14
-2 -6 15 -20 16 -36 35 -35 41 4 40 -1 53 -18 42 -11 -6 -26 13 -34 44 -7 31
-48 128 -91 216 -43 88 -109 264 -148 390 -39 127 -77 244 -83 260 -7 17 -15
57 -18 90 -4 33 -16 103 -27 156 -26 124 -26 934 0 1075 22 120 28 147 62 279
12 50 24 104 26 120 3 17 16 56 29 87 13 32 26 79 28 105 2 27 10 48 17 48 8
0 19 23 27 51 17 69 193 432 226 466 14 14 20 35 14 45 -6 10 2 24 20 30 17 7
26 20 20 30 -6 10 -3 18 7 18 10 0 35 33 56 72 21 40 67 105 103 144 36 40 65
79 65 87 0 16 115 133 370 374 76 73 135 138 131 143 -5 6 9 13 30 17 22 4 48
16 59 28 14 14 11 16 -8 5 -19 -11 -23 -9 -14 7 8 13 22 19 30 14 23 -14 102
47 102 80 0 16 10 29 21 29 12 0 16 -9 9 -20 -6 -10 59 23 146 75 88 52 155
102 150 110 -5 9 -2 15 8 13 57 -10 95 3 66 23 -25 17 -23 20 10 18 71 -6 93
1 78 24 -8 14 -5 18 7 10 11 -7 69 9 128 35 59 26 172 68 252 93 92 30 136 53
120 63 -14 9 3 11 37 4 43 -8 71 -2 94 21 18 18 53 31 78 29 101 -9 188 4 146
21 -25 11 21 17 127 17 91 1 172 6 178 12 16 16 440 15 719 -1z m686 -1075
c159 -84 165 -98 831 -1852 705 -1856 684 -1784 578 -1978 -157 -289 -584
-314 -758 -46 -39 61 -750 1901 -830 2150 -14 42 -28 74 -31 70 -14 -16 -310
-823 -310 -847 0 -70 -40 -39 -71 56 -20 58 -127 345 -238 638 l-203 532 211
553 c121 318 234 581 265 620 122 152 377 200 556 104z"/>
</g>
</svg>
